<?xml version="1.0" encoding="utf-8"?>
<!-- Generator: Adobe Illustrator 16.0.4, SVG Export Plug-In . SVG Version: 6.00 Build 0)  -->
<!DOCTYPE svg PUBLIC "-//W3C//DTD SVG 1.1//EN" "http://www.w3.org/Graphics/SVG/1.1/DTD/svg11.dtd">
<svg version="1.1" id="Layer_1" xmlns="http://www.w3.org/2000/svg" xmlns:xlink="http://www.w3.org/1999/xlink" x="0px" y="0px"
	 width="640px" height="1146px" viewBox="0 0 640 1146" enable-background="new 0 0 640 1146" xml:space="preserve">
<g>
	<path fill="#FFFFFF" d="M372.051,737.354c0,0-37.219-2.967-57.446-13.755s-29.667-24.543-29.667-24.543
		s10.615,11.864,25.512,20.854c9.082,5.48,19.756,9.893,30.586,9.893c0,0-16.721-9.439-29.263-2.697c0,0,9.035-6.203,24.678-1.483
		c15.644,4.72,23.464,2.022,23.464,2.022s-26.43-0.135-37.893-7.687s-14.295-11.866-14.295-11.866s11.867,12.271,21.037,13.755
		s24.947-0.271,24.947-0.271s-16.316,0.405-21.441-1.888c-5.124-2.292-25.352-6.877-28.992,2.697c0,0,4.045-10.114,22.52-7.147
		s20.229,2.023,20.229,2.023s-32.77-12.677-51.109-5.529s-17.126,13.216-17.126,13.216s1.214-21.037,45.984-17.262
		c0,0-20.901-3.102-28.589-9.305c-7.686-6.203-8.226-10.248-8.226-10.248s8.765,13.35,19.554,13.484
		c10.788,0.136,13.89-0.809,13.89-0.809s-21.037-4.854-31.017-3.776c-9.979,1.079-26.16,4.585-34.656-10.788
		c0,0,7.956,14.699,29.668,9.575c21.711-5.125,35.33,0.539,35.33,0.539s-32.903-6.338-39.646-12.676
		c-6.742-6.338-7.551-17.262-7.551-17.262s2.832,18.34,16.721,20.094c13.891,1.753,34.927,1.348,40.456,7.687
		c0,0-13.89-10.249-28.319-8.9c-14.429,1.349-36.68,19.958-48.007,15.104c-11.328-4.854-16.452-0.81-16.452-0.81
		s4.72-4.72,12.811-2.562c8.091,2.158,9.844,5.395,23.734-4.18s37.488-21.441,52.457-11.193c0,0-69.941-19.372-77.493-58.748
		c0,0,6.65,26.254,40.813,37.939c34.164,11.686,36.141,10.788,36.141,10.788s-52.681-5.575-77.314-53.043
		c0,0,21.395,36.86,54.66,41.715c0,0-28.05-9.709-49.807-39.376c-21.754-29.668-22.656-39.559-22.656-39.559
		s26.433,47.468,76.419,55.92c0,0-39.154-11.195-67.203-46.931s-19.284-42.748-19.284-42.748s-6.068-12.811-1.483-15.643
		c0,0-9.035-10.249-6.473-18.609c0,0,6.473,31.689,39.511,52.457c33.039,20.767,35.871,23.329,35.871,23.329
		s-34.253-23.464-45.041-34.792c-10.788-11.327-22.925-20.093-29.937-44.365c0,0,6.743,24.003,28.049,40.455
		c21.306,16.452,25.487,16.182,25.487,16.182s-43.692-22.385-54.076-59.469c0,0,6.068,27.375,54.211,53.536
		c0,0-48.277-28.454-54.211-58.796c0,0-1.079-4.45,0.944-6.607c0,0-2.428-5.799-1.618-13.081c0.809-7.281,1.753-15.103,1.753-15.103
		s-2.158,30.746,27.779,54.479c0,0-35.331-42.346-22.744-77.226c0,0-2.699,19.239,5.752,28.049c0,0-7.193-15.461-3.776-33.622
		c0,0-0.9,19.239,8.091,36.68c8.991,17.44,37.759,51.243,37.759,51.243s-33.802-39.558-39.196-61.853
		c-5.394-22.295-2.338-36.858-2.338-36.858s-3.056,20.855,10.069,41.714c13.125,20.857,17.622,23.194,17.622,23.194
		s-36.143-37.58-22.479-79.293c0,0-0.897,42.253,14.025,60.413c14.926,18.161,19.418,18.7,19.418,18.7s-30.746-24.273-29.667-58.256
		c1.079-33.982,6.835-35.78,6.835-35.78s-12.769,28.766,7.729,56.457c20.498,27.691,16.363,22.476,16.363,22.476
		s-29.127-37.758-23.373-67.246c5.754-29.488,16.721-29.128,16.721-29.128s-12.045,7.91-11.506,26.07
		c0.539,18.16,17.801,53.401,17.801,53.401s-19.24-48.365-14.025-63.29c5.212-14.924,16.182-19.418,16.182-19.418
		s-21.399,12.227-8.993,44.951c0,0-7.73-31.104,12.945-45.668c0,0-14.742,14.025-8.63,40.096c0,0-1.798-32.007,17.8-42.974
		c0,0-12.583,9.891-12.764,29.849c0,0,2.697-20.14,17.619-31.467c0,0-11.328,17.261-10.607,42.073c0,0,8.451-24.45,12.588-42.432
		c0,0,0.717,9.71-2.339,21.755c-3.056,12.047-4.494,13.125-4.494,13.125s10.967-16.182,11.507-32.004c0,0,0.539,15.464-4.135,28.41
		c0,0,8.902-7.158,10.023-23.02c0.018-0.236,0.031-0.475,0.045-0.715c0,0,2.516,23.192-6.654,42.792
		c-9.17,19.601-13.485,21.397-13.485,21.397s20.32-19.24,23.376-45.85c0,0,0.359,14.922-5.034,27.867
		c-5.394,12.946-11.148,22.837-11.148,22.837s27.149-24.636,22.655-68.864c0,0,5.213,24.631,0.539,43.331
		s-27.691,47.468-27.691,47.468s35.783-31.646,37.4-81.811c0,0,4.315,29.667-12.137,56.637c0,0,24.273-27.509,23.734-53.67
		c0,0,5.395,13.215,0.809,31.285c-4.584,18.07-26.43,60.413-49.086,70.662c0,0,61.492-33.174,57.447-90.08
		c0,0,6.742,25.891-1.618,50.974c-8.36,25.082-40.187,63.38-40.187,63.38s45.58-42.073,52.323-87.924c0,0,2.157-14.023-0.54-22.385
		c0,0,11.059,4.854,11.867,25.622c0.809,20.767-9.979,48.816-17.53,68.504c-7.552,19.688-23.733,45.85-23.733,45.85
		s52.592-80.371,45.039-119.748c0,0,13.486,16.991,11.867,39.107c-1.617,22.115-12.945,83.607-44.5,111.387
		c0,0,33.982-26.97,43.422-76.056c0,0,4.854-26.161,4.045-40.456c0,0,6.742,30.207,4.315,52.862s-27.779,73.359-27.779,73.359
		s27.779-42.344,29.667-68.774c0,0,2.967,15.912,0.81,30.477c-2.157,14.563-14.563,41.804-25.083,57.716
		c0,0,22.116-31.824,26.701-45.85c4.585-14.024,3.775-22.115,3.775-22.115s5.395,43.692-3.236,64.189s-35.87,50.974-37.758,65.268
		c0,0,12.676-33.173,40.186-38.298c27.51-5.124,43.152,2.697,43.152,2.697s-41.804-13.485-64.189,11.867
		c0,0-11.327,13.755-11.598,26.161c0,0,29.129-20.497,33.713-48.547c4.586-28.049,25.893-32.364,25.893-32.364
		s-23.734,8.9-23.465,33.174s-26.971,52.861-33.443,52.053c0,0,22.116-6.203,29.938-24.812c0,0-5.125,18.879-16.182,29.802
		c-11.059,10.923-7.418,15.643-7.418,15.643s3.776-11.731,14.834-21.576c11.059-9.844,25.622-26.835,25.757-38.298
		c0.135-11.462,12.137-22.925,12.137-22.925s-9.439,12.002-9.845,20.633c-0.404,8.63,0.944,22.115-14.833,33.443
		c-15.778,11.327-22.386,31.689-22.116,40.59c0,0,11.014-31.78,43.379-38.072c0,0-30.928,6.112-41.895,40.995
		c0,0,20.496-34.881,47.827-44.051c0,0-29.128,12.406-43.152,42.793c0,0,8.271-21.579,34.161-22.477c0,0-21.576,2.876-30.385,23.194
		c0,0,3.955-8.628,18.699-11.686s27.148-13.666,24.093-23.736c0,0,3.775,14.022-15.462,23.374
		c-19.239,9.352-26.611,30.388-26.611,30.388S380.052,740.499,372.051,737.354z"/>
	<g>
		<path fill="#FFFFFF" d="M275.407,518.203c0,0-10.249-3.776-19.419-18.88c0,0,8.9,20.768,21.037,30.477L275.407,518.203z"/>
		<path fill="#FFFFFF" d="M279.183,542.206c0,0-14.563-3.236-31.825-26.7s-18.879-31.556-18.879-31.556s14.294,51.783,52.322,72.82
			L279.183,542.206z"/>
		<path fill="#FFFFFF" d="M278.644,509.842c0,0,3.236-11.058,15.373-17.261c0,0-12.406,13.485-13.216,31.285L278.644,509.842z"/>
		<path fill="#FFFFFF" d="M288.713,566.391c0,0,0.36-15.463,23.016-35.601c0,0-21.574,24.095-22.295,41.355L288.713,566.391z"/>
		<path fill="#FFFFFF" d="M304.175,619.253c0,0,6.475-18.342,19.06-25.173c12.586-6.831,23.734-17.261,23.734-17.261
			s-17.264,15.465-22.297,21.218c-5.033,5.752-17.261,33.443-17.261,33.443L304.175,619.253z"/>
	</g>
	<path fill="#FFFFFF" d="M276.307,431.78c0,0-18.879,205.514,131.076,328.498c0,0-2.158,12.945-8.631,10.788
		C392.279,768.908,246.639,618.954,276.307,431.78z"/>
</g>
</svg>
